<svg width="84" height="62" viewBox="0 0 84 62" fill="none" xmlns="http://www.w3.org/2000/svg">
<g clip-path="url(#clip0_10_547)">
<path d="M42 62C23.9497 62 7.50629 49.9886 0.154088 31.3974L0 31L0.154088 30.6026C7.50629 12.0114 23.9497 0 42 0C60.0503 0 76.4937 12.0114 83.8459 30.6246L84 31.0221L83.8459 31.4195C76.4937 50.0107 60.0503 62.0442 42 62.0442V62ZM2.24528 31C9.35535 48.5755 24.9182 59.9024 42 59.9024C59.0818 59.9024 74.6226 48.5755 81.7547 31C74.6226 13.4245 59.0818 2.09758 42 2.09758C24.9182 2.09758 9.35535 13.4245 2.24528 31Z" fill="#231815"/>
<path d="M42 56.3036C28 56.3036 16.6195 44.9546 16.6195 31.0002C16.6195 17.0458 28 5.69678 42 5.69678C56 5.69678 67.3805 17.0458 67.3805 31.0002C67.3805 44.9546 56 56.3036 42 56.3036ZM42 7.77228C29.1667 7.77228 18.7107 18.1939 18.7107 30.9781C18.7107 43.7623 29.1667 54.184 42 54.184C54.8333 54.184 65.2893 43.7623 65.2893 30.9781C65.2893 18.1939 54.8333 7.79436 42 7.79436V7.77228Z" fill="#72277F"/>
</g>
<defs>
<clipPath id="clip0_10_547">
<rect width="84" height="62" fill="white"/>
</clipPath>
</defs>
</svg>
