<svg width="69" height="69" viewBox="0 0 69 69" fill="none" xmlns="http://www.w3.org/2000/svg">
<g clip-path="url(#clip0_10_538)">
<path d="M34.5 69C15.473 69 0 53.527 0 34.5C0 15.473 15.473 0 34.5 0C53.527 0 69 15.473 69 34.5C69 53.527 53.527 69 34.5 69ZM34.5 2.08139C16.6315 2.08139 2.08139 16.6315 2.08139 34.5C2.08139 52.3685 16.6118 66.9186 34.5 66.9186C52.3882 66.9186 66.9186 52.3882 66.9186 34.5C66.9186 16.6118 52.3685 2.08139 34.5 2.08139Z" fill="#231815"/>
<path d="M34.5 37.2687C36.029 37.2687 37.2686 36.0292 37.2686 34.5001C37.2686 32.971 36.029 31.7314 34.5 31.7314C32.9709 31.7314 31.7313 32.971 31.7313 34.5001C31.7313 36.0292 32.9709 37.2687 34.5 37.2687Z" fill="#792888"/>
<path d="M10.8389 35.5408C10.2695 35.5408 9.79822 35.0695 9.79822 34.5001C9.79822 33.9307 10.2695 33.4594 10.8389 33.4594L33.4004 33.4005L33.4593 10.839C33.4593 10.2696 33.9305 9.79834 34.5 9.79834C35.0694 9.79834 35.5407 10.2696 35.5407 10.839L35.4818 34.4412C35.4818 35.0106 35.0105 35.4819 34.4411 35.4819L10.8389 35.5408Z" fill="#722680"/>
</g>
<defs>
<clipPath id="clip0_10_538">
<rect width="69" height="69" fill="white"/>
</clipPath>
</defs>
</svg>
