<svg width="65" height="68" viewBox="0 0 65 68" fill="none" xmlns="http://www.w3.org/2000/svg">
<g clip-path="url(#clip0_10_550)">
<path d="M10.6516 23.301C7.02709 22.8205 6.86066 22.6727 6.37986 19.0325C6.32438 18.6629 6.01002 18.3857 5.64017 18.3857C5.27033 18.3857 4.95596 18.6629 4.90049 19.0325C4.41969 22.6542 4.27175 22.8205 0.628794 23.301C0.25895 23.3564 -0.0184326 23.6705 -0.0184326 24.0401C-0.0184326 24.4097 0.25895 24.7238 0.628794 24.7792C4.25326 25.2597 4.41969 25.4075 4.90049 29.0477C4.95596 29.4173 5.27033 29.6944 5.64017 29.6944C6.01002 29.6944 6.32438 29.4173 6.37986 29.0477C6.86066 25.426 7.00859 25.2597 10.6516 24.7792C11.0214 24.7238 11.2988 24.4097 11.2988 24.0401C11.2988 23.6705 11.0214 23.3564 10.6516 23.301Z" fill="#72277F"/>
<path d="M50.8906 68H26.5364C26.333 68 26.148 67.9445 25.9816 67.8521C25.5563 67.7043 25.2604 67.2978 25.2604 66.8358V58.7424C23.3557 58.7239 21.636 58.3913 20.1566 57.7445C16.791 56.3032 14.6274 52.9402 14.6274 49.1706V45.1054H10.7256C9.33866 45.1054 8.0627 44.3478 7.41547 43.1282C6.76825 41.9087 6.84222 40.4304 7.6004 39.2847L10.7995 34.4989C11.0769 34.0924 11.3728 33.7228 11.6502 33.3902L11.8166 33.1869C11.8166 33.1869 12.2789 32.5587 12.8707 30.7478C13.4809 28.8815 13.8877 26.7934 14.0542 24.5206L14.1281 23.6706C15.2931 10.7174 25.7042 0.55431 38.3529 0.01844C39.0926 -0.0185165 39.8507 -0.0185165 40.5904 0.01844C49.5591 0.388005 57.4738 5.35866 61.7825 13.3043C66.2576 21.5826 66.0542 31.376 61.2092 39.488C60.2846 41.0587 59.3045 42.3337 58.3429 43.313C57.3628 44.2924 56.3088 46.1771 55.3657 48.5978C53.7938 52.7184 52.9987 57.2271 52.9987 62.013V66.8174C52.9987 67.4087 52.5179 67.8891 51.9261 67.8891H51.3159C51.1865 67.9445 51.057 67.9815 50.9091 67.9815L50.8906 68ZM27.4055 65.838H50.4653C50.5762 65.7826 50.6872 65.7456 50.8166 65.7456V62.013C50.8166 56.9684 51.6672 52.1826 53.3315 47.8217C54.3856 45.0869 55.5691 42.9989 56.7896 41.7793C57.6402 40.9293 58.4909 39.7837 59.3415 38.3793C63.7981 30.9326 63.983 21.9337 59.8778 14.3391C55.9389 7.05866 48.7085 2.53148 40.498 2.1804C39.8138 2.14344 39.1296 2.16192 38.4453 2.1804C26.8692 2.67931 17.3458 11.9924 16.2732 23.8369L16.1993 24.6684C16.0143 27.1076 15.5705 29.3804 14.9048 31.413C14.4055 32.9097 13.9247 33.963 13.4809 34.5358L13.3145 34.7391C13.0741 35.0347 12.8152 35.3489 12.5933 35.6815L9.39414 40.4674C9.06128 40.9478 9.04278 41.576 9.32017 42.0934C9.59755 42.6108 10.1338 42.925 10.7256 42.925H15.7C16.2917 42.925 16.7725 43.4054 16.7725 43.9967V49.1521C16.7725 52.0532 18.4368 54.6587 20.9887 55.7489C22.4681 56.3771 24.2434 56.6543 26.2775 56.5434C26.5734 56.5434 26.8692 56.6358 27.0727 56.8391C27.2946 57.0424 27.4055 57.3195 27.4055 57.6152V65.8195V65.838Z" fill="#231815"/>
<path d="M21.9687 34.462C23.3679 34.462 24.5022 32.1952 24.5022 29.399C24.5022 26.6027 23.3679 24.3359 21.9687 24.3359C20.5696 24.3359 19.4353 26.6027 19.4353 29.399C19.4353 32.1952 20.5696 34.462 21.9687 34.462Z" fill="#72277F"/>
<path d="M18.7511 50.298C17.5861 50.298 16.569 50.0024 15.9033 49.6698C15.367 49.4111 15.1451 48.7459 15.4225 48.2285C15.6999 47.7111 16.3286 47.4893 16.8649 47.748C17.1977 47.9143 20.212 49.2448 22.6344 46.048C22.9858 45.5676 23.67 45.4752 24.1508 45.8263C24.6316 46.1774 24.7241 46.8611 24.3727 47.3415C22.6529 49.6328 20.5448 50.3165 18.7696 50.3165L18.7511 50.298Z" fill="#231815"/>
</g>
<defs>
<clipPath id="clip0_10_550">
<rect width="65" height="68" fill="white"/>
</clipPath>
</defs>
</svg>
