<svg width="16" height="17" viewBox="0 0 16 17" fill="none" xmlns="http://www.w3.org/2000/svg">
<g id="UNITED_STATES_OF_AMERICA">
<g clip-path="url(#clip0_484_3724)">
<rect y="0.5" width="16" height="16" rx="8" fill="white"/>
<path id="Vector" d="M30.4072 10.3452H0V11.5774H30.4072V10.3452Z" fill="#D20037"/>
<path id="Vector_2" d="M30.4072 15.27H0V16.5001H30.4072V15.27Z" fill="#D20037"/>
<path id="Vector_3" d="M30.4072 12.8071H0V14.0393H30.4072V12.8071Z" fill="#D20037"/>
<path id="Vector_4" d="M30.4072 7.88379H0V9.11456H30.4072V7.88379Z" fill="#D20037"/>
<path id="Vector_5" d="M30.4072 2.9624H0V4.19172H30.4072V2.9624Z" fill="#D20037"/>
<path id="Vector_6" d="M30.4072 0.5H0V1.73005H30.4072V0.5Z" fill="#D20037"/>
<path id="Vector_7" d="M30.4072 5.42383H0V6.6546H30.4072V5.42383Z" fill="#D20037"/>
<path id="Vector_8" d="M12.1491 0.5H0V9.10235H12.1491V0.5Z" fill="#00387F"/>
<path id="Vector_9" d="M1.95558 1.58008L2.07939 1.96017H2.4783L2.1554 2.19474L2.27848 2.57411L1.95558 2.33954L1.63269 2.57411L1.75649 2.19474L1.43359 1.96017H1.83251L1.95558 1.58008Z" fill="white"/>
<path id="Vector_10" d="M3.97975 1.58008L4.10282 1.96017H4.50174L4.17884 2.19474L4.30264 2.57411L3.97975 2.33954L3.65685 2.57411L3.77993 2.19474L3.45703 1.96017H3.85595L3.97975 1.58008Z" fill="white"/>
<path id="Vector_11" d="M5.99928 1.58008L6.12235 1.96017H6.52127L6.19837 2.19474L6.32217 2.57411L5.99928 2.33954L5.67638 2.57411L5.79946 2.19474L5.47656 1.96017H5.87548L5.99928 1.58008Z" fill="white"/>
<path id="Vector_12" d="M8.04152 1.58008L8.16532 1.96017H8.56424L8.24134 2.19474L8.36442 2.57411L8.04152 2.33954L7.71863 2.57411L7.84243 2.19474L7.51953 1.96017H7.91844L8.04152 1.58008Z" fill="white"/>
<path id="Vector_13" d="M10.0579 1.58008L10.1809 1.96017H10.5799L10.257 2.19474L10.3808 2.57411L10.0579 2.33954L9.73497 2.57411L9.85805 2.19474L9.53516 1.96017H9.93407L10.0579 1.58008Z" fill="white"/>
<path id="Vector_14" d="M1.95558 3.3335L2.07939 3.71359H2.4783L2.1554 3.94816L2.27848 4.32752L1.95558 4.09295L1.63269 4.32752L1.75649 3.94816L1.43359 3.71359H1.83251L1.95558 3.3335Z" fill="white"/>
<path id="Vector_15" d="M3.97975 3.3335L4.10282 3.71359H4.50174L4.17884 3.94816L4.30264 4.32752L3.97975 4.09295L3.65685 4.32752L3.77993 3.94816L3.45703 3.71359H3.85595L3.97975 3.3335Z" fill="white"/>
<path id="Vector_16" d="M5.99928 3.3335L6.12235 3.71359H6.52127L6.19837 3.94816L6.32217 4.32752L5.99928 4.09295L5.67638 4.32752L5.79946 3.94816L5.47656 3.71359H5.87548L5.99928 3.3335Z" fill="white"/>
<path id="Vector_17" d="M8.04152 3.3335L8.16532 3.71359H8.56424L8.24134 3.94816L8.36442 4.32752L8.04152 4.09295L7.71863 4.32752L7.84243 3.94816L7.51953 3.71359H7.91844L8.04152 3.3335Z" fill="white"/>
<path id="Vector_18" d="M10.0579 3.3335L10.1809 3.71359H10.5799L10.257 3.94816L10.3808 4.32752L10.0579 4.09295L9.73497 4.32752L9.85805 3.94816L9.53516 3.71359H9.93407L10.0579 3.3335Z" fill="white"/>
<path id="Vector_19" d="M1.95558 5.05811L2.07939 5.43747H2.4783L2.1554 5.67204L2.27848 6.05213L1.95558 5.81756L1.63269 6.05213L1.75649 5.67204L1.43359 5.43747H1.83251L1.95558 5.05811Z" fill="white"/>
<path id="Vector_20" d="M3.97975 5.05811L4.10282 5.43747H4.50174L4.17884 5.67204L4.30264 6.05213L3.97975 5.81756L3.65685 6.05213L3.77993 5.67204L3.45703 5.43747H3.85595L3.97975 5.05811Z" fill="white"/>
<path id="Vector_21" d="M5.99928 5.05811L6.12235 5.43747H6.52127L6.19837 5.67204L6.32217 6.05213L5.99928 5.81756L5.67638 6.05213L5.79946 5.67204L5.47656 5.43747H5.87548L5.99928 5.05811Z" fill="white"/>
<path id="Vector_22" d="M8.04152 5.05811L8.16532 5.43747H8.56424L8.24134 5.67204L8.36442 6.05213L8.04152 5.81756L7.71863 6.05213L7.84243 5.67204L7.51953 5.43747H7.91844L8.04152 5.05811Z" fill="white"/>
<path id="Vector_23" d="M10.0579 5.05811L10.1809 5.43747H10.5799L10.257 5.67204L10.3808 6.05213L10.0579 5.81756L9.73497 6.05213L9.85805 5.67204L9.53516 5.43747H9.93407L10.0579 5.05811Z" fill="white"/>
<path id="Vector_24" d="M1.95558 6.80029L2.07939 7.18038H2.4783L2.1554 7.41495L2.27848 7.79432L1.95558 7.55975L1.63269 7.79432L1.75649 7.41495L1.43359 7.18038H1.83251L1.95558 6.80029Z" fill="white"/>
<path id="Vector_25" d="M3.97975 6.80029L4.10282 7.18038H4.50174L4.17884 7.41495L4.30264 7.79432L3.97975 7.55975L3.65685 7.79432L3.77993 7.41495L3.45703 7.18038H3.85595L3.97975 6.80029Z" fill="white"/>
<path id="Vector_26" d="M5.99928 6.80029L6.12235 7.18038H6.52127L6.19837 7.41495L6.32217 7.79432L5.99928 7.55975L5.67638 7.79432L5.79946 7.41495L5.47656 7.18038H5.87548L5.99928 6.80029Z" fill="white"/>
<path id="Vector_27" d="M8.04152 6.80029L8.16532 7.18038H8.56424L8.24134 7.41495L8.36442 7.79432L8.04152 7.55975L7.71863 7.79432L7.84243 7.41495L7.51953 7.18038H7.91844L8.04152 6.80029Z" fill="white"/>
<path id="Vector_28" d="M10.0579 6.80029L10.1809 7.18038H10.5799L10.257 7.41495L10.3808 7.79432L10.0579 7.55975L9.73497 7.79432L9.85805 7.41495L9.53516 7.18038H9.93407L10.0579 6.80029Z" fill="white"/>
<path id="Vector_29" d="M0.93996 2.45312L1.06376 2.83249H1.46267L1.13978 3.06706L1.26286 3.44715L0.93996 3.21258L0.617064 3.44715L0.740865 3.06706L0.417969 2.83249H0.816883L0.93996 2.45312Z" fill="white"/>
<path id="Vector_30" d="M2.96412 2.45312L3.0872 2.83249H3.48684L3.16322 3.06706L3.28702 3.44715L2.96412 3.21258L2.64123 3.44715L2.7643 3.06706L2.44141 2.83249H2.84032L2.96412 2.45312Z" fill="white"/>
<path id="Vector_31" d="M4.98365 2.45312L5.10673 2.83249H5.50637L5.18275 3.06706L5.30655 3.44715L4.98365 3.21258L4.66076 3.44715L4.78383 3.06706L4.46094 2.83249H4.85985L4.98365 2.45312Z" fill="white"/>
<path id="Vector_32" d="M7.0259 2.45312L7.1497 2.83249H7.54861L7.22572 3.06706L7.34879 3.44715L7.0259 3.21258L6.703 3.44715L6.8268 3.06706L6.50391 2.83249H6.90282L7.0259 2.45312Z" fill="white"/>
<path id="Vector_33" d="M9.04225 2.45312L9.16532 2.83249H9.56496L9.24134 3.06706L9.36514 3.44715L9.04225 3.21258L8.71935 3.44715L8.84243 3.06706L8.51953 2.83249H8.91917L9.04225 2.45312Z" fill="white"/>
<path id="Vector_34" d="M11.0735 2.45312L11.1966 2.83249H11.5955L11.2726 3.06706L11.3964 3.44715L11.0735 3.21258L10.7506 3.44715L10.8737 3.06706L10.5508 2.83249H10.9497L11.0735 2.45312Z" fill="white"/>
<path id="Vector_35" d="M0.93996 0.712891L1.06376 1.09226H1.46267L1.13978 1.32683L1.26286 1.70619L0.93996 1.47162L0.617064 1.70619L0.740865 1.32683L0.417969 1.09226H0.816883L0.93996 0.712891Z" fill="white"/>
<path id="Vector_36" d="M2.96412 0.712891L3.0872 1.09226H3.48684L3.16322 1.32683L3.28702 1.70619L2.96412 1.47162L2.64123 1.70619L2.7643 1.32683L2.44141 1.09226H2.84032L2.96412 0.712891Z" fill="white"/>
<path id="Vector_37" d="M4.98365 0.712891L5.10673 1.09226H5.50637L5.18275 1.32683L5.30655 1.70619L4.98365 1.47162L4.66076 1.70619L4.78383 1.32683L4.46094 1.09226H4.85985L4.98365 0.712891Z" fill="white"/>
<path id="Vector_38" d="M7.0259 0.712891L7.1497 1.09226H7.54861L7.22572 1.32683L7.34879 1.70619L7.0259 1.47162L6.703 1.70619L6.8268 1.32683L6.50391 1.09226H6.90282L7.0259 0.712891Z" fill="white"/>
<path id="Vector_39" d="M9.04225 0.712891L9.16532 1.09226H9.56496L9.24134 1.32683L9.36514 1.70619L9.04225 1.47162L8.71935 1.70619L8.84243 1.32683L8.51953 1.09226H8.91917L9.04225 0.712891Z" fill="white"/>
<path id="Vector_40" d="M11.0735 0.712891L11.1966 1.09226H11.5955L11.2726 1.32683L11.3964 1.70619L11.0735 1.47162L10.7506 1.70619L10.8737 1.32683L10.5508 1.09226H10.9497L11.0735 0.712891Z" fill="white"/>
<path id="Vector_41" d="M0.93996 4.19971L1.06376 4.57907H1.46267L1.13978 4.81364L1.26286 5.19373L0.93996 4.95916L0.617064 5.19373L0.740865 4.81364L0.417969 4.57907H0.816883L0.93996 4.19971Z" fill="white"/>
<path id="Vector_42" d="M2.96412 4.19971L3.0872 4.57907H3.48684L3.16322 4.81364L3.28702 5.19373L2.96412 4.95916L2.64123 5.19373L2.7643 4.81364L2.44141 4.57907H2.84032L2.96412 4.19971Z" fill="white"/>
<path id="Vector_43" d="M4.98365 4.19971L5.10673 4.57907H5.50637L5.18275 4.81364L5.30655 5.19373L4.98365 4.95916L4.66076 5.19373L4.78383 4.81364L4.46094 4.57907H4.85985L4.98365 4.19971Z" fill="white"/>
<path id="Vector_44" d="M7.0259 4.19971L7.1497 4.57907H7.54861L7.22572 4.81364L7.34879 5.19373L7.0259 4.95916L6.703 5.19373L6.8268 4.81364L6.50391 4.57907H6.90282L7.0259 4.19971Z" fill="white"/>
<path id="Vector_45" d="M9.04225 4.19971L9.16532 4.57907H9.56496L9.24134 4.81364L9.36514 5.19373L9.04225 4.95916L8.71935 5.19373L8.84243 4.81364L8.51953 4.57907H8.91917L9.04225 4.19971Z" fill="white"/>
<path id="Vector_46" d="M11.0735 4.19971L11.1966 4.57907H11.5955L11.2726 4.81364L11.3964 5.19373L11.0735 4.95916L10.7506 5.19373L10.8737 4.81364L10.5508 4.57907H10.9497L11.0735 4.19971Z" fill="white"/>
<path id="Vector_47" d="M0.93996 5.94775L1.06376 6.32712H1.46267L1.13978 6.56169L1.26286 6.94178L0.93996 6.70649L0.617064 6.94178L0.740865 6.56169L0.417969 6.32712H0.816883L0.93996 5.94775Z" fill="white"/>
<path id="Vector_48" d="M2.96412 5.94775L3.0872 6.32712H3.48684L3.16322 6.56169L3.28702 6.94178L2.96412 6.70649L2.64123 6.94178L2.7643 6.56169L2.44141 6.32712H2.84032L2.96412 5.94775Z" fill="white"/>
<path id="Vector_49" d="M4.98365 5.94775L5.10673 6.32712H5.50637L5.18275 6.56169L5.30655 6.94178L4.98365 6.70649L4.66076 6.94178L4.78383 6.56169L4.46094 6.32712H4.85985L4.98365 5.94775Z" fill="white"/>
<path id="Vector_50" d="M7.0259 5.94775L7.1497 6.32712H7.54861L7.22572 6.56169L7.34879 6.94178L7.0259 6.70649L6.703 6.94178L6.8268 6.56169L6.50391 6.32712H6.90282L7.0259 5.94775Z" fill="white"/>
<path id="Vector_51" d="M9.04225 5.94775L9.16532 6.32712H9.56496L9.24134 6.56169L9.36514 6.94178L9.04225 6.70649L8.71935 6.94178L8.84243 6.56169L8.51953 6.32712H8.91917L9.04225 5.94775Z" fill="white"/>
<path id="Vector_52" d="M11.0735 5.94775L11.1966 6.32712H11.5955L11.2726 6.56169L11.3964 6.94178L11.0735 6.70649L10.7506 6.94178L10.8737 6.56169L10.5508 6.32712H10.9497L11.0735 5.94775Z" fill="white"/>
<path id="Vector_53" d="M0.93996 7.66113L1.06376 8.0405H1.46267L1.13978 8.27507L1.26286 8.65516L0.93996 8.42059L0.617064 8.65516L0.740865 8.27507L0.417969 8.0405H0.816883L0.93996 7.66113Z" fill="white"/>
<path id="Vector_54" d="M2.96412 7.66113L3.0872 8.0405H3.48684L3.16322 8.27507L3.28702 8.65516L2.96412 8.42059L2.64123 8.65516L2.7643 8.27507L2.44141 8.0405H2.84032L2.96412 7.66113Z" fill="white"/>
<path id="Vector_55" d="M4.98365 7.66113L5.10673 8.0405H5.50637L5.18275 8.27507L5.30655 8.65516L4.98365 8.42059L4.66076 8.65516L4.78383 8.27507L4.46094 8.0405H4.85985L4.98365 7.66113Z" fill="white"/>
<path id="Vector_56" d="M7.0259 7.66113L7.1497 8.0405H7.54861L7.22572 8.27507L7.34879 8.65516L7.0259 8.42059L6.703 8.65516L6.8268 8.27507L6.50391 8.0405H6.90282L7.0259 7.66113Z" fill="white"/>
<path id="Vector_57" d="M9.04225 7.66113L9.16532 8.0405H9.56496L9.24134 8.27507L9.36514 8.65516L9.04225 8.42059L8.71935 8.65516L8.84243 8.27507L8.51953 8.0405H8.91917L9.04225 7.66113Z" fill="white"/>
<path id="Vector_58" d="M11.0735 7.66113L11.1966 8.0405H11.5955L11.2726 8.27507L11.3964 8.65516L11.0735 8.42059L10.7506 8.65516L10.8737 8.27507L10.5508 8.0405H10.9497L11.0735 7.66113Z" fill="white"/>
</g>
</g>
<defs>
<clipPath id="clip0_484_3724">
<rect y="0.5" width="16" height="16" rx="8" fill="white"/>
</clipPath>
</defs>
</svg>
