<svg width="162" height="161" viewBox="0 0 162 161" fill="none" xmlns="http://www.w3.org/2000/svg">
<g id="Frame 115">
<g id="Group 18">
<g id="Union" opacity="0.9">
<path d="M87.3759 92.5125C89.8176 92.5125 91.7955 86.903 91.7955 79.9834C91.7955 73.0638 89.8176 67.4543 87.3759 67.4543C84.9343 67.4543 82.9563 73.0638 82.9563 79.9834C82.9563 86.903 84.9343 92.5125 87.3759 92.5125Z" fill="#812990" fill-opacity="0.6"/>
<path fill-rule="evenodd" clip-rule="evenodd" d="M99.0193 102.49C91.8868 113.092 79.7205 120.077 65.9093 120.077C43.942 120.077 26.1328 102.407 26.1328 80.6098C26.1328 58.813 43.942 41.1432 65.9093 41.1432C79.7181 41.1432 91.8843 48.1266 99.0169 58.7286C106.265 59.4631 111.999 68.9794 111.999 80.6098C111.999 92.2368 106.265 101.75 99.0193 102.49ZM92.385 92.5149C87.9432 105.677 76.354 115.065 62.7524 115.065C45.3181 115.065 31.1838 99.6388 31.1838 80.6098C31.1838 61.5808 45.3181 46.1548 62.7524 46.1548C76.354 46.1548 87.9432 55.5425 92.385 68.7048C93.7735 64.8685 95.823 62.4427 98.1093 62.4427C102.295 62.4427 105.686 70.5764 105.686 80.6098C105.686 90.6433 102.295 98.777 98.1093 98.777C95.823 98.777 93.7735 96.3512 92.385 92.5149Z" fill="#812990" fill-opacity="0.6"/>
</g>
<path id="Vector 1" d="M38 98.5L160 72.5" stroke="#812990" stroke-width="3" stroke-linecap="round" stroke-dasharray="6 6"/>
<path id="Vector 1_2" d="M33.207 78.5L159.708 111.177" stroke="#812990" stroke-width="3" stroke-linecap="round" stroke-dasharray="6 6"/>
<path id="Vector 1_3" d="M37.4999 98.4999L156 26.5" stroke="#812990" stroke-width="3" stroke-linecap="round" stroke-dasharray="6 6"/>
</g>
</g>
</svg>
