<svg width="160" height="162" viewBox="0 0 160 162" fill="none" xmlns="http://www.w3.org/2000/svg">
<g id="Frame 126">
<g id="Group 23">
<rect id="Rectangle 188" x="48" y="1.5" width="8" height="63" rx="4" fill="#812990"/>
<rect id="Rectangle 188_2" x="66" y="0.5" width="8" height="64" rx="4" fill="#812990"/>
<g id="Subtract">
<path d="M46.2149 42.6434C44.3248 48.166 43.2771 54.2433 43.2771 60.6233C43.2771 85.9618 59.8022 106.526 79.9996 106.526C100.197 106.526 116.722 85.9618 116.722 60.6233C116.722 35.2848 100.197 14.7202 79.9996 14.7202C78.509 14.7202 77.0383 14.8322 75.5929 15.0499V60.256C75.5929 63.501 72.9623 66.1316 69.7173 66.1316C66.4723 66.1316 63.8417 63.501 63.8417 60.256V19.4158C61.7663 20.6937 59.8 22.2097 57.9661 23.9352V60.256C57.9661 63.501 55.3355 66.1316 52.0905 66.1316C48.8455 66.1316 46.2149 63.501 46.2149 60.256V42.6434Z" fill="#812990" fill-opacity="0.6"/>
<path d="M6.55469 143.249C6.55469 123.419 22.1617 107.444 41.6246 106.526C51.5397 117.727 65.127 124.888 79.9996 124.888C94.8722 124.888 108.459 117.727 118.375 106.526C138.021 107.444 153.444 123.419 153.444 143.249V161.61H6.55469V143.249Z" fill="#812990" fill-opacity="0.6"/>
</g>
<path id="Ellipse 122" d="M141.693 53.7897C141.693 58.9834 137.419 63.1937 132.145 63.1937C126.872 63.1937 122.598 58.9834 122.598 53.7897C122.598 48.5961 132.145 29.4091 132.145 29.4091C132.145 29.4091 141.693 48.5961 141.693 53.7897Z" fill="#812990"/>
</g>
</g>
</svg>
