<svg width="161" height="161" viewBox="0 0 161 161" fill="none" xmlns="http://www.w3.org/2000/svg">
<g id="Frame 114">
<g id="Group 17">
<g id="Union" opacity="0.9">
<path d="M61.2431 92.5125C63.6847 92.5125 65.6627 86.903 65.6627 79.9834C65.6627 73.0638 63.6847 67.4543 61.2431 67.4543C58.8015 67.4543 56.8235 73.0638 56.8235 79.9834C56.8235 86.903 58.8015 92.5125 61.2431 92.5125Z" fill="#812990" fill-opacity="0.6"/>
<path fill-rule="evenodd" clip-rule="evenodd" d="M72.8865 102.49C65.754 113.092 53.5877 120.077 39.7765 120.077C17.8091 120.077 0 102.407 0 80.6098C0 58.813 17.8091 41.1432 39.7765 41.1432C53.5853 41.1432 65.7515 48.1266 72.884 58.7286C80.1325 59.4631 85.8666 68.9794 85.8666 80.6098C85.8666 92.2368 80.1325 101.75 72.8865 102.49ZM66.2522 92.5149C61.8104 105.677 50.2212 115.065 36.6196 115.065C19.1853 115.065 5.05098 99.6388 5.05098 80.6098C5.05098 61.5808 19.1853 46.1548 36.6196 46.1548C50.2212 46.1548 61.8104 55.5425 66.2522 68.7048C67.6407 64.8685 69.6902 62.4427 71.9764 62.4427C76.1618 62.4427 79.5529 70.5764 79.5529 80.6098C79.5529 90.6433 76.1618 98.777 71.9764 98.777C69.6902 98.777 67.6407 96.3512 66.2522 92.5149Z" fill="#812990" fill-opacity="0.6"/>
</g>
<path id="Vector 1" d="M1.06641 80.0765L160 80.0765" stroke="#812990" stroke-opacity="0.6" stroke-width="3" stroke-dasharray="6 6"/>
<path id="Vector 1_2" d="M1.06641 85.4099L159.828 35.8098" stroke="#812990" stroke-opacity="0.6" stroke-width="3" stroke-dasharray="6 6"/>
<path id="Vector 1_3" d="M1.06641 75.2766L159.828 124.877" stroke="#812990" stroke-opacity="0.6" stroke-width="3" stroke-dasharray="6 6"/>
<circle id="Ellipse 121" cx="18.1349" cy="80.6099" r="8.53333" fill="#812990"/>
</g>
</g>
</svg>
