<svg width="160" height="161" viewBox="0 0 160 161" fill="none" xmlns="http://www.w3.org/2000/svg">
<g id="Frame 116" clip-path="url(#clip0_417_7068)">
<g id="Group 21">
<g id="Union" opacity="0.9">
<path d="M64.1111 110.671C70.3244 110.671 75.3577 96.2681 75.3577 78.5015C75.3577 60.7349 70.3244 46.3321 64.1111 46.3321C57.8979 46.3321 52.8646 60.7349 52.8646 78.5015C52.8646 96.2681 57.8979 110.671 64.1111 110.671Z" fill="#812990" fill-opacity="0.6"/>
<path fill-rule="evenodd" clip-rule="evenodd" d="M93.7401 136.287C75.59 163.511 44.6305 181.443 9.48489 181.443C-46.4154 181.443 -91.7344 136.075 -91.7344 80.1099C-91.7344 24.145 -46.4154 -21.2234 9.48489 -21.2234C44.6242 -21.2234 75.5837 -3.29313 93.7339 23.9283C112.179 25.8142 128.024 26.5795 135.998 38.6244C147.498 55.9959 112.179 134.389 93.7401 136.287ZM76.8577 110.677C65.5546 144.472 36.0637 168.576 1.45161 168.576C-42.9134 168.576 -78.8811 128.968 -78.8811 80.1099C-78.8811 31.2516 -42.9134 -8.35572 1.45161 -8.35572C36.0637 -8.35572 65.5546 15.7477 76.8577 49.543C77.8945 48.2623 80.9238 38.6244 91.5785 38.6244C97.1641 38.6244 110.704 34.9908 110.704 90.3113C110.704 110.042 103.77 130.437 91.4243 130.437C85.6065 130.437 80.3911 120.527 76.8577 110.677Z" fill="#812990" fill-opacity="0.6"/>
</g>
<path id="Vector 2" d="M97 14.1099H149" stroke="#812990" stroke-width="6" stroke-dasharray="8 8"/>
<path id="Vector 2_2" d="M97 146.11H133" stroke="#812990" stroke-width="6" stroke-dasharray="8 8"/>
</g>
</g>
<defs>
<clipPath id="clip0_417_7068">
<rect width="160" height="160" fill="white" transform="translate(0 0.109863)"/>
</clipPath>
</defs>
</svg>
