<svg width="170" height="179" viewBox="0 0 170 179" fill="none" xmlns="http://www.w3.org/2000/svg">
<g id="Frame 118">
<g id="Group 22">
<g id="Group 20">
<path id="Vector 3" d="M85 117L85 85L53 85" stroke="#812990" stroke-opacity="0.6" stroke-width="20" stroke-linecap="round" stroke-linejoin="round"/>
<path id="Vector 3_2" d="M85 53V85H117" stroke="#812990" stroke-width="20" stroke-linecap="round"/>
</g>
<g id="Group">
<path id="Vector" d="M59.1592 9.10986C56.9725 9.88853 54.8392 10.7525 52.7592 11.7019M32.3992 24.8379C30.5862 26.4225 28.8458 28.0882 27.1832 29.8299M13.2552 49.6299C11.7618 52.6165 10.4632 55.7019 9.35915 58.8859M5.12715 80.2459C4.95115 83.3579 4.95915 86.5339 5.14315 89.6459M9.54315 111.238C10.6098 114.225 11.8472 117.131 13.2552 119.958M26.5272 139.054C28.4792 141.15 30.5405 143.139 32.7112 145.022M51.2072 157.158C54.3806 158.689 57.6517 160.01 60.9992 161.11" stroke="#812990" stroke-opacity="0.6" stroke-width="10" stroke-linecap="round" stroke-linejoin="round"/>
</g>
<path id="Vector_2" d="M85 165.11L141.097 178.763L124.873 123.355L85 165.11ZM85 0.109863C82.2386 0.109863 80 2.34844 80 5.10986C80 7.87129 82.2386 10.1099 85 10.1099V0.109863ZM130.888 156.671C154.404 141.563 170 115.16 170 85.1099H160C160 111.615 146.256 134.911 125.483 148.258L130.888 156.671ZM170 85.1099C170 38.1644 131.945 0.109863 85 0.109863V10.1099C126.423 10.1099 160 43.6873 160 85.1099H170Z" fill="#812990" fill-opacity="0.6"/>
</g>
</g>
</svg>
