<svg width="73" height="68" viewBox="0 0 73 68" fill="none" xmlns="http://www.w3.org/2000/svg">
<g clip-path="url(#clip0_6_320)">
<path d="M42.3871 57.2629H29.4355C28.7761 57.2629 28.2581 56.738 28.2581 56.0699C28.2581 55.4019 28.7761 54.877 29.4355 54.877H42.3871C43.0465 54.877 43.5645 55.4019 43.5645 56.0699C43.5645 56.738 43.0465 57.2629 42.3871 57.2629Z" fill="#231815"/>
<path d="M7.06452 57.263H1.17742C0.518065 57.263 0 56.7381 0 56.07V7.44403C0 7.44403 0 7.25316 0.0470968 7.15772C0.0941936 6.91912 1.43645 1.81316 6.68774 0.0714021C7.3 -0.143335 7.95936 0.21456 8.17129 0.834911C8.38323 1.45526 8.03 2.12333 7.41774 2.33807C3.79129 3.53105 2.56677 6.89526 2.35484 7.61105V54.877H7.06452C7.72387 54.877 8.24194 55.4019 8.24194 56.07C8.24194 56.7381 7.72387 57.263 7.06452 57.263Z" fill="#231815"/>
<path d="M71.8226 57.263H65.9355C65.2761 57.263 64.7581 56.7381 64.7581 56.07C64.7581 55.4019 65.2761 54.877 65.9355 54.877H70.6452V7.61105C70.4332 6.89526 69.2323 3.55491 65.5587 2.33807C64.9464 2.12333 64.5932 1.45526 64.8052 0.834911C65.0171 0.21456 65.6764 -0.143335 66.2887 0.0714021C71.5635 1.81316 72.9058 6.94298 72.9529 7.15772C72.9764 7.25316 73 7.34859 73 7.44403V56.07C73 56.7381 72.4819 57.263 71.8226 57.263Z" fill="#231815"/>
<path d="M18.6268 68.0001C12.0097 68.0001 6.64064 62.5601 6.64064 55.8555C6.64064 49.1509 12.0097 43.7109 18.6268 43.7109C25.2439 43.7109 30.6129 49.1509 30.6129 55.8555C30.6129 62.5601 25.2439 68.0001 18.6268 68.0001ZM18.6268 46.0969C13.3048 46.0969 8.99548 50.4871 8.99548 55.8555C8.99548 61.2239 13.3284 65.6141 18.6268 65.6141C23.9252 65.6141 28.2581 61.2239 28.2581 55.8555C28.2581 50.4871 23.9252 46.0969 18.6268 46.0969Z" fill="#72277F"/>
<path d="M53.9494 68.0001C47.3323 68.0001 41.9632 62.5601 41.9632 55.8555C41.9632 49.1509 47.3323 43.7109 53.9494 43.7109C60.5665 43.7109 65.9355 49.1509 65.9355 55.8555C65.9355 62.5601 60.5665 68.0001 53.9494 68.0001ZM53.9494 46.0969C48.6274 46.0969 44.3181 50.4871 44.3181 55.8555C44.3181 61.2239 48.651 65.6141 53.9494 65.6141C59.2477 65.6141 63.5806 61.2239 63.5806 55.8555C63.5806 50.4871 59.2477 46.0969 53.9494 46.0969Z" fill="#72277F"/>
</g>
<defs>
<clipPath id="clip0_6_320">
<rect width="73" height="68" fill="white"/>
</clipPath>
</defs>
</svg>
