<svg width="81" height="60" viewBox="0 0 81 60" fill="none" xmlns="http://www.w3.org/2000/svg">
<g clip-path="url(#clip0_10_525)">
<path d="M40.5 60C23.08 60 7.24 48.3825 0.14 30.3825L0 30L0.14 29.6174C7.24 11.6376 23.08 0 40.5 0C57.92 0 73.76 11.6376 80.86 29.6376L81 30.0201L80.86 30.4027C73.76 48.4027 57.92 60.0403 40.5 60.0403V60ZM2.16 30C9.02 47.0134 24.02 57.9664 40.48 57.9664C56.94 57.9664 71.94 46.9933 78.8 30C71.96 12.9866 56.96 2.03356 40.5 2.03356C24.04 2.03356 9.02 12.9866 2.16 30Z" fill="#231815"/>
<path d="M40.5 50.2952C29.32 50.2952 20.22 41.1945 20.22 29.9999C20.22 18.8053 29.32 9.70459 40.5 9.70459C51.68 9.70459 60.78 18.8053 60.78 29.9999C60.78 41.1945 51.68 50.2952 40.5 50.2952ZM40.5 11.7381C30.44 11.7381 22.24 19.9328 22.24 29.9999C22.24 40.067 30.44 48.2616 40.5 48.2616C50.56 48.2616 58.76 40.067 58.76 29.9999C58.76 19.9328 50.58 11.7381 40.5 11.7381Z" fill="#231815"/>
<path d="M50.12 26.7182H48.1V22.329H43.74V20.2954H50.12V26.7182Z" fill="#6C2479"/>
<path d="M33.9 26.7182H31.88V20.2954H38.26V22.329H33.9V26.7182Z" fill="#6C2479"/>
<path d="M38.26 38.8994H31.88V32.4766H33.9V36.8658H38.26V38.8994Z" fill="#6C2479"/>
<path d="M50.12 38.8994H43.74V36.8658H48.1V32.4766H50.12V38.8994Z" fill="#6C2479"/>
<path d="M40.66 31.4701C41.4995 31.4701 42.18 30.785 42.18 29.9399C42.18 29.0948 41.4995 28.4097 40.66 28.4097C39.8205 28.4097 39.14 29.0948 39.14 29.9399C39.14 30.785 39.8205 31.4701 40.66 31.4701Z" fill="#6C2479"/>
</g>
<defs>
<clipPath id="clip0_10_525">
<rect width="81" height="60" fill="white"/>
</clipPath>
</defs>
</svg>
