<svg width="78" height="63" viewBox="0 0 78 63" fill="none" xmlns="http://www.w3.org/2000/svg">
<g clip-path="url(#clip0_10_542)">
<path d="M39 60.1748C22.2229 60.1748 6.97452 49.0639 0.133758 31.863L0 31.5002L0.133758 31.1375C6.97452 13.9366 22.2229 2.82568 39 2.82568C55.7771 2.82568 71.0255 13.9366 77.8471 31.1375L77.9809 31.5002L77.8471 31.863C71.0064 49.0639 55.758 60.1748 39 60.1748ZM2.0828 31.5002C8.69427 47.7466 23.1401 58.2275 38.9809 58.2275C54.8217 58.2275 69.2866 47.7466 75.879 31.5002C69.3057 15.2539 54.8408 4.77296 39 4.77296C23.1592 4.77296 8.69427 15.2539 2.0828 31.5002Z" fill="#231815"/>
<path d="M39 50.8967C28.242 50.8967 19.4713 42.1913 19.4713 31.5004C19.4713 20.8095 28.242 12.104 39 12.104C49.758 12.104 58.5096 20.8095 58.5096 31.5004C58.5096 42.1913 49.758 50.8967 39 50.8967ZM39 14.0513C29.3121 14.0513 21.4204 21.8785 21.4204 31.5004C21.4204 41.1222 29.3121 48.9495 39 48.9495C48.6879 48.9495 56.5796 41.1222 56.5796 31.5004C56.5796 21.8785 48.6879 14.0513 39 14.0513Z" fill="#231815"/>
<path d="M16.7962 63.0001C16.3949 63.0001 15.9745 62.8664 15.6306 62.6183C14.7707 61.9692 14.5987 60.7664 15.2484 59.9073L59.8854 0.76371C60.535 -0.0953812 61.7389 -0.267199 62.5987 0.381891C63.4586 1.03098 63.6306 2.23371 62.9809 3.0928L18.344 62.2364C17.9618 62.7328 17.3885 63.0001 16.7962 63.0001Z" fill="#72277F"/>
</g>
<defs>
<clipPath id="clip0_10_542">
<rect width="78" height="63" fill="white"/>
</clipPath>
</defs>
</svg>
